<svg xmlns="http://www.w3.org/2000/svg" width="24" height="24" viewBox="0 0 24 24" fill="currentColor">
  <path d="M10.93 2.045c-.547-.425-1.282-.425-1.829 0l-8.515 6.692c-.317.249-.317.73 0 .979l8.515 6.692c.547.425 1.282.425 1.829 0l8.515-6.692c.317-.249.317-.73 0-.979L10.93 2.045zM12 5.95l6.44 5.05L12 16.05 5.56 11 12 5.95z"/>
  <path d="M19.48 13.03l-.84-.66-6.64 5.21c-.547.425-1.282.425-1.829 0l-6.64-5.21-.84.66c-.317.249-.317.73 0 .979l8.515 6.692c.547.425 1.282.425 1.829 0l8.515-6.692c.317-.249.317-.73 0-.979z"/>
  <path d="M12 14.5c-.414 0-.75.336-.75.75v4.25h1.5V15.25c0-.414-.336-.75-.75-.75z"/>
</svg>