<svg xmlns="http://www.w3.org/2000/svg" width="24" height="24" viewBox="0 0 24 24">
  <circle cx="12" cy="12" r="12" fill="#4285F4"/>
  <path d="M9.64 14.64l-.96.36c-.24.09-.64.26-.64.26s.39-.2.4-.2c.33-.17.68-.33 1.01-.52.3-.17.58-.36.84-.57l.05-.04c.28-.24.51-.52.68-.85.34-.66.12-1.48-.49-1.92-.29-.21-.65-.33-1.01-.35-.56-.03-1.12.18-1.45.58-.16.19-.27.42-.3.66-.03.24.01.49.12.7.22.42.71.64 1.18.52.23-.06.44-.18.59-.35.03-.04.06-.09.08-.14.12-.31.05-.67-.18-.9-.12-.12-.28-.2-.45-.22-.34-.04-.68.18-.78.53-.02.07-.02.15 0 .22.04.16.16.29.32.33.08.02.17.01.24-.02.14-.06.24-.2.26-.35 0-.02 0-.05-.01-.07-.02-.06-.07-.1-.13-.11-.03-.01-.06 0-.09.01-.02.01-.04.03-.05.05 0 .01 0 .03.01.04.02.03.05.05.09.05.02 0 .04 0 .05-.01.03-.01.05-.04.06-.07 0-.01 0-.03-.01-.04-.01-.02-.03-.03-.05-.04-.01 0-.03 0-.04.01-.02.01-.03.03-.04.05 0 .01 0 .02.01.03.01.01.02.02.04.02.01 0 .02 0 .03-.01.01-.01.02-.02.02-.03 0-.01 0-.01 0-.02 0-.01-.01-.01-.02-.02h-.01c-.01 0-.01.01-.02.01 0 .01 0 .01.01.02 0 0 .01.01.01.01.01 0 .01 0 .02-.01 0 0 .01-.01.01-.02 0 0 0-.01-.01-.01 0 0-.01 0-.01-.01 0 0 0-.01.01-.01 0 0 .01 0 .01.01 0 0 0 .01-.01.01 0 0 0 .01.01.01h.01c0-.01 0-.01 0-.02 0 0-.01-.01-.01-.01 0 0-.01 0-.01-.01 0 0 0-.01.01-.01 0 0 .01 0 .01.01z" fill="white"/>
  <path d="M12 7c2.76 0 5 2.24 5 5s-2.24 5-5 5-5-2.24-5-5 2.24-5 5-5m0-1c-3.31 0-6 2.69-6 6s2.69 6 6 6 6-2.69 6-6-2.69-6-6-6z" fill="#34A853"/>
  <path d="M12 10l3 2-3 2V10z" fill="#EA4335"/>
  <path d="M12 8l2 2-2 2V8z" fill="#FBBC05"/>
</svg>