<svg xmlns="http://www.w3.org/2000/svg" width="24" height="24" viewBox="0 0 24 24" fill="currentColor">
  <path d="M19.586 0H4.414C1.97 0 0 1.97 0 4.414v15.172C0 22.03 1.97 24 4.414 24h15.172C22.03 24 24 22.03 24 19.586V4.414C24 1.97 22.03 0 19.586 0zM8.05 9.6c0-.895.315-1.635.947-2.225.63-.59 1.456-.885 2.477-.885.765 0 1.43.15 1.995.45s.997.727 1.297 1.283c.3.555.45 1.202.45 1.94 0 .765-.158 1.442-.473 2.032-.315.59-.76 1.042-1.335 1.357-.575.315-1.237.473-1.987.473-.795 0-1.487-.165-2.078-.495-.59-.33-1.035-.795-1.335-1.395-.3-.6-.45-1.297-.45-2.092v-.443zm7.425 0c0-.585.112-1.095.337-1.53.225-.435.547-.772.967-1.012.42-.24.915-.36 1.485-.36.57 0 1.065.12 1.485.36.42.24.742.577.967 1.012.225.435.337.945.337 1.53 0 .585-.112 1.095-.337 1.53-.225.435-.547.772-.967 1.012-.42.24-.915.36-1.485.36-.57 0-1.065-.12-1.485-.36-.42-.24-.742-.577-.967-1.012-.225-.435-.337-.945-.337-1.53z"/>
  <path d="M12.932 12.682c-.315.18-.652.27-1.012.27-.495 0-.907-.15-1.237-.45-.33-.3-.495-.697-.495-1.192 0-.495.165-.892.495-1.192.33-.3.742-.45 1.237-.45.36 0 .697.09 1.012.27v2.744zm2.475-1.192c0-.495.165-.892.495-1.192.33-.3.742-.45 1.237-.45.495 0 .907.15 1.237.45.33.3.495.697.495 1.192 0 .495-.165.892-.495 1.192-.33.3-.742.45-1.237.45-.495 0-.907-.15-1.237-.45-.33-.3-.495-.697-.495-1.192z"/>
</svg>